<svg width="14" height="19" viewBox="0 0 14 19" fill="none" xmlns="http://www.w3.org/2000/svg">
<path d="M13.5625 4.90625C13.5625 7.44331 10.6238 9.5 7 9.5C3.37619 9.5 0.4375 7.44331 0.4375 4.90625C0.4375 2.36919 3.37619 0.3125 7 0.3125C10.6238 0.3125 13.5625 2.36919 13.5625 4.90625ZM13.3669 8.38306C11.935 9.85437 9.61712 10.8125 7 10.8125C4.38287 10.8125 2.065 9.85437 0.633063 8.38306C0.50355 8.74121 0.437375 9.11916 0.4375 9.5C0.4375 12.0371 3.37619 14.0938 7 14.0938C10.6238 14.0938 13.5625 12.0371 13.5625 9.5C13.5608 9.11325 13.4956 8.74094 13.3669 8.38306ZM13.3669 12.9768C11.935 14.4481 9.61712 15.4062 7 15.4062C4.38287 15.4062 2.065 14.4481 0.633063 12.9768C0.50355 13.335 0.437375 13.7129 0.4375 14.0938C0.4375 16.6308 3.37619 18.6875 7 18.6875C10.6238 18.6875 13.5625 16.6308 13.5625 14.0938C13.5608 13.707 13.4956 13.3347 13.3669 12.9768Z" fill="url(#paint0_linear_11_1729)"/>
<defs>
<linearGradient id="paint0_linear_11_1729" x1="7" y1="0.3125" x2="7" y2="18.6875" gradientUnits="userSpaceOnUse">
<stop stop-color="#967CFF"/>
<stop offset="1" stop-color="#BA7FE2"/>
</linearGradient>
</defs>
</svg>
